# xmcd
#
# Track frame offsets: 
#        150
#        11650
#        24260
#        37650
#        55200
#        69250
#        85725
#        100560
#        113675
#        122600
#        136187
#        149725
#        167500
#        180750
#        198447
#        210487
#
# Disc length: 3002 seconds
#
# Revision: 2
# Processed by: cddbd v1.4PL0 Copyright (c) Steve Scherf et al.
# Submitted via: ExactAudioCopy v0.90a11
#
DISCID=bf0bb810
DTITLE=John Conlee - Blue Highway
DYEAR=1900
DGENRE=
TTITLE0=She Loves My Troubles Away
TTITLE1=She Can't Say That Anymore
TTITLE2=I Wish I Could Hurt That Way Again
TTITLE3=I Don't Remember Loving You
TTITLE4=Lady Lay Down
TTITLE5=In My Eyes
TTITLE6=Blue Highway
TTITLE7=The Staying Side Of Goodbye
TTITLE8=I'll Be Easy
TTITLE9=I Feel Like Loving You Again
TTITLE10=Nothing Behind You (And Nothing In Sight)
TTITLE11=Working Man
TTITLE12=Could You Love Me
TTITLE13=Arthur And Alice
TTITLE14=Somebody's Leavin'
TTITLE15=When It Hurts You Most
EXTD=
EXTT0=
EXTT1=
EXTT2=
EXTT3=
EXTT4=
EXTT5=
EXTT6=
EXTT7=
EXTT8=
EXTT9=
EXTT10=
EXTT11=
EXTT12=
EXTT13=
EXTT14=
EXTT15=
PLAYORDER=
